<?xml version="1.0" encoding="UTF-8" standalone="no"?>
<!-- Created with Inkscape (http://www.inkscape.org/) -->

<svg
   xmlns:dc="http://purl.org/dc/elements/1.1/"
   xmlns:cc="http://creativecommons.org/ns#"
   xmlns:rdf="http://www.w3.org/1999/02/22-rdf-syntax-ns#"
   xmlns:svg="http://www.w3.org/2000/svg"
   xmlns="http://www.w3.org/2000/svg"
   xmlns:sodipodi="http://sodipodi.sourceforge.net/DTD/sodipodi-0.dtd"
   xmlns:inkscape="http://www.inkscape.org/namespaces/inkscape"
   width="258.8381mm"
   height="258.8381mm"
   viewBox="0 0 917.14289 917.14288"
   id="svg2"
   version="1.1"
   inkscape:version="0.91 r13725"
   sodipodi:docname="logo-v4.svg">
  <defs
     id="defs4" />
  <sodipodi:namedview
     id="base"
     pagecolor="#ffffff"
     bordercolor="#666666"
     borderopacity="1.0"
     inkscape:pageopacity="0.0"
     inkscape:pageshadow="2"
     inkscape:zoom="0.7"
     inkscape:cx="535.01549"
     inkscape:cy="458.95454"
     inkscape:document-units="px"
     inkscape:current-layer="layer1"
     showgrid="false"
     borderlayer="false"
     showborder="false"
     inkscape:object-paths="true"
     inkscape:snap-intersection-paths="true"
     inkscape:object-nodes="true"
     inkscape:snap-smooth-nodes="true"
     fit-margin-top="0"
     fit-margin-left="0"
     fit-margin-right="0"
     fit-margin-bottom="0"
     inkscape:window-width="1855"
     inkscape:window-height="1056"
     inkscape:window-x="1985"
     inkscape:window-y="24"
     inkscape:window-maximized="1" />
  <metadata
     id="metadata7">
    <rdf:RDF>
      <cc:Work
         rdf:about="">
        <dc:format>image/svg+xml</dc:format>
        <dc:type
           rdf:resource="http://purl.org/dc/dcmitype/StillImage" />
        <dc:title></dc:title>
      </cc:Work>
    </rdf:RDF>
  </metadata>
  <g
     inkscape:label="Layer 1"
     inkscape:groupmode="layer"
     id="layer1"
     transform="translate(1030.714,-41.647308)">
    <rect
       style="opacity:1;fill:#ffffff;fill-opacity:1;fill-rule:nonzero"
       id="rect4214"
       width="917.14288"
       height="917.14288"
       x="-1030.714"
       y="41.647308" />
    <path
       style="opacity:1;fill:#000000;fill-opacity:1;fill-rule:nonzero"
       d="m -747.14258,125.21875 a 200,200 0 0 0 -200,200 200,200 0 0 0 103.44531,174.89453 200,200 0 0 0 -103.44531,175.10547 200,200 0 0 0 200,200 200,200 0 0 0 200,-200 l 0,-150 150,0 a 200,200 0 0 0 200,-200 200,200 0 0 0 -200,-200 200,200 0 0 0 -174.89453,103.44531 200,200 0 0 0 -175.10547,-103.44531 z m 0,50 a 150,150 0 0 1 150,150 l 0,150 -150,0 a 150,150 0 0 1 -150,-150 150,150 0 0 1 150,-150 z m 350,0 a 150,150 0 0 1 150,150 150,150 0 0 1 -150,150 l -150,0 0,-150 a 150,150 0 0 1 150,-150 z m -350,350 150,0 0,150 a 150,150 0 0 1 -150,150 150,150 0 0 1 -150,-150 150,150 0 0 1 150,-150 z"
       id="path4136"
       inkscape:connector-curvature="0" />
  </g>
</svg>
