<?xml version="1.0" encoding="UTF-8" standalone="no"?>
<!-- Created with Inkscape (http://www.inkscape.org/) -->

<svg
   xmlns:dc="http://purl.org/dc/elements/1.1/"
   xmlns:cc="http://creativecommons.org/ns#"
   xmlns:rdf="http://www.w3.org/1999/02/22-rdf-syntax-ns#"
   xmlns:svg="http://www.w3.org/2000/svg"
   xmlns="http://www.w3.org/2000/svg"
   xmlns:xlink="http://www.w3.org/1999/xlink"
   xmlns:sodipodi="http://sodipodi.sourceforge.net/DTD/sodipodi-0.dtd"
   xmlns:inkscape="http://www.inkscape.org/namespaces/inkscape"
   width="84.94503mm"
   height="132.5386mm"
   viewBox="0 0 300.98633 469.62498"
   id="svg2"
   version="1.1"
   inkscape:version="0.91 r13725"
   sodipodi:docname="logo-v2.svg">
  <defs
     id="defs4">
    <linearGradient
       id="linearGradient4185"
       inkscape:collect="always">
      <stop
         id="stop4187"
         offset="0"
         style="stop-color:#012346;stop-opacity:1" />
      <stop
         id="stop4189"
         offset="1"
         style="stop-color:#45678a;stop-opacity:1" />
    </linearGradient>
    <linearGradient
       inkscape:collect="always"
       id="linearGradient4169">
      <stop
         style="stop-color:#012346;stop-opacity:1"
         offset="0"
         id="stop4171" />
      <stop
         style="stop-color:#45678a;stop-opacity:1"
         offset="1"
         id="stop4173" />
    </linearGradient>
    <linearGradient
       inkscape:collect="always"
       xlink:href="#linearGradient4185"
       id="linearGradient4175"
       x1="78.013672"
       y1="363.95508"
       x2="341.5"
       y2="363.95508"
       gradientUnits="userSpaceOnUse" />
    <linearGradient
       inkscape:collect="always"
       xlink:href="#linearGradient4169"
       id="linearGradient4183"
       x1="379"
       y1="406.36133"
       x2="79"
       y2="406.36133"
       gradientUnits="userSpaceOnUse" />
    <linearGradient
       inkscape:collect="always"
       xlink:href="#linearGradient4185"
       id="linearGradient4193"
       gradientUnits="userSpaceOnUse"
       x1="341.39087"
       y1="363.95508"
       x2="78.013672"
       y2="363.95508"
       gradientTransform="matrix(1,0,0,-1,3.8e-6,812.72266)" />
  </defs>
  <sodipodi:namedview
     id="base"
     pagecolor="#ffffff"
     bordercolor="#666666"
     borderopacity="1.0"
     inkscape:pageopacity="0.0"
     inkscape:pageshadow="2"
     inkscape:zoom="0.5"
     inkscape:cx="-157.48174"
     inkscape:cy="358.97519"
     inkscape:document-units="px"
     inkscape:current-layer="layer1"
     showgrid="false"
     showborder="false"
     showguides="false"
     inkscape:object-paths="true"
     inkscape:snap-intersection-paths="true"
     inkscape:object-nodes="true"
     inkscape:snap-smooth-nodes="true"
     inkscape:window-width="1855"
     inkscape:window-height="1056"
     inkscape:window-x="65"
     inkscape:window-y="24"
     inkscape:window-maximized="1"
     fit-margin-top="0"
     fit-margin-left="0"
     fit-margin-right="0"
     fit-margin-bottom="0" />
  <metadata
     id="metadata7">
    <rdf:RDF>
      <cc:Work
         rdf:about="">
        <dc:format>image/svg+xml</dc:format>
        <dc:type
           rdf:resource="http://purl.org/dc/dcmitype/StillImage" />
        <dc:title></dc:title>
      </cc:Work>
    </rdf:RDF>
  </metadata>
  <g
     inkscape:label="Layer 1"
     inkscape:groupmode="layer"
     id="layer1"
     transform="translate(-78.013672,-171.54883)">
    <path
       style="opacity:1;fill:url(#linearGradient4193);fill-opacity:1;fill-rule:nonzero"
       d="m 79,406.36133 -0.986328,0.45508 0,234.33203 c 0.329797,0.004 0.655491,0.0254 0.986328,0.0254 41.55,0 75,-33.45 75,-75 l 0,-159.8125 -75,0 z"
       id="path4191"
       inkscape:connector-curvature="0" />
    <path
       style="opacity:1;fill:url(#linearGradient4183);fill-opacity:1;fill-rule:nonzero"
       d="m 229,256.36133 a 150,150 0 0 0 -150,150 150,150 0 0 0 150,150 150,150 0 0 0 150,-150 150,150 0 0 0 -150,-150 z m 0,75 a 75,75 0 0 1 75,75 75,75 0 0 1 -75,75 75,75 0 0 1 -75,-75 75,75 0 0 1 75,-75 z"
       id="path4136"
       inkscape:connector-curvature="0" />
    <path
       style="opacity:1;fill:url(#linearGradient4175);fill-opacity:1;fill-rule:nonzero"
       d="m 79,171.54883 c -0.330837,0 -0.656531,0.0212 -0.986328,0.0254 l 0,236.17187 C 78.089695,407.63984 79,406.36133 79,406.36133 a 150,150 0 0 0 142.04297,149.71875 112.5,112.5 0 0 0 7.95703,0.28125 112.5,112.5 0 0 0 112.5,-112.5 112.5,112.5 0 0 0 -105.01172,-112.125 75,75 0 0 1 67.51172,74.625 75,75 0 0 1 -75,75 75,75 0 0 1 -75,-75 l 0,-159.8125 c 0,-41.55 -33.45,-75 -75,-75 z"
       id="path4141"
       inkscape:connector-curvature="0" />
  </g>
</svg>
