<?xml version="1.0" encoding="UTF-8" standalone="no"?>
<svg
   xmlns:dc="http://purl.org/dc/elements/1.1/"
   xmlns:cc="http://creativecommons.org/ns#"
   xmlns:rdf="http://www.w3.org/1999/02/22-rdf-syntax-ns#"
   xmlns:svg="http://www.w3.org/2000/svg"
   xmlns="http://www.w3.org/2000/svg"
   version="1.1"
   id="svg4886"
   viewBox="0 0 96.25 29.726563"
   height="8.3894968mm"
   width="27.163889mm">
  <defs
     id="defs4888" />
  <metadata
     id="metadata4891">
    <rdf:RDF>
      <cc:Work
         rdf:about="">
        <dc:format>image/svg+xml</dc:format>
        <dc:type
           rdf:resource="http://purl.org/dc/dcmitype/StillImage" />
        <dc:title></dc:title>
      </cc:Work>
    </rdf:RDF>
  </metadata>
  <g
     transform="translate(1139.5762,230.01932)"
     id="layer1">
    <g
       id="flowRoot5434"
       style="font-style:normal;font-variant:normal;font-weight:normal;font-stretch:normal;font-size:40px;line-height:125%;font-family:Sawasdee;-inkscape-font-specification:'Sawasdee, Normal';text-align:start;letter-spacing:0px;word-spacing:0px;writing-mode:lr-tb;text-anchor:start;fill:#000000;fill-opacity:1;stroke:none;stroke-width:1px;stroke-linecap:butt;stroke-linejoin:miter;stroke-opacity:1">
      <path
         id="path5506"
         style=""
         d="m -1137.8184,-202.26541 8.4766,0 q 3.2227,0 5.4297,-1.99219 2.207,-2.01172 2.207,-4.80469 0,-2.79297 -2.207,-4.78515 -2.207,-2.01172 -5.4297,-2.01172 l -8.4766,0 0,13.59375 z m 13.8868,-20.44922 q 0,-2.10938 -1.6797,-3.65234 -1.6602,-1.54297 -4.1016,-1.54297 l -8.1055,0 0,10.3125 8.1055,0 q 2.4609,0 4.1211,-1.48438 1.6602,-1.5039 1.6602,-3.63281 z m -15.6446,-6.95313 10.0196,0 q 3.0468,0 5.2539,2.07032 2.207,2.05078 2.207,4.92187 0,1.79688 -0.957,3.32031 -0.9375,1.52344 -2.5391,2.46094 2.5391,0.97656 4.082,3.08594 1.5625,2.10937 1.5625,4.74609 0,2.32422 -1.2695,4.29688 -1.2695,1.97265 -3.4375,3.125 -2.1484,1.13281 -4.6875,1.13281 l -10.2344,0 0,-29.16016 z" />
      <path
         id="path5508"
         style=""
         d="m -1111.041,-211.30838 11.7578,0 -5.8984,-14.16016 -5.8594,14.16016 z m 12.4609,1.75781 -13.3008,0 -3.7109,9.04297 -1.875,0 12.2266,-29.51172 12.2656,29.51172 -1.875,0 -3.7305,-9.04297 z" />
      <path
         id="path5510"
         style=""
         d="m -1064.9473,-207.26541 1.4063,0.95703 q -2.0313,2.79297 -5.1563,4.41406 -3.125,1.60156 -6.7382,1.60156 -3.0079,0 -5.7422,-1.17187 -2.7344,-1.17188 -4.7071,-3.16406 -1.9726,-1.99219 -3.1445,-4.7461 -1.1719,-2.7539 -1.1719,-5.78125 0,-3.02734 1.1719,-5.78125 1.1719,-2.7539 3.1445,-4.74609 1.9727,-1.99219 4.7071,-3.16406 2.7343,-1.17188 5.7422,-1.17188 3.5937,0 6.7187,1.64063 3.125,1.62109 5.1758,4.43359 l -1.4063,1.03516 q -1.8164,-2.44141 -4.5703,-3.84766 -2.7344,-1.42578 -5.9179,-1.42578 -3.5547,0 -6.5625,1.75781 -2.9883,1.75781 -4.7266,4.78516 -1.7383,3.00781 -1.7383,6.58203 0,2.65625 1.0156,5.07812 1.0352,2.42188 2.7735,4.17969 1.7383,1.75781 4.1601,2.8125 2.4219,1.03516 5.0782,1.03516 3.1835,0 5.9179,-1.42578 2.7539,-1.42578 4.5703,-3.88672 z" />
      <path
         id="path5512"
         style=""
         d="m -1050.2012,-207.32401 -1.7578,0 0,-6.875 -6.8359,0 0,-1.73828 6.8359,0 0,-6.91406 1.7578,0 0,6.91406 6.875,0 0,1.73828 -6.875,0 0,6.875 z" />
    </g>
  </g>
</svg>
